# xmcd CD database file
#
# Track frame offsets:
#	150
#	40595
#	56520
#	99357
#	129620
#	170550
#	205009
#	213492
#	230475
#
# Disc length: 3319 seconds
#
# Revision: 4
# Processed by: cddbd v1.5.1PL0 Copyright (c) Steve Scherf et al.
# Submitted via: CDex 1.51
#
DISCID=760cf509
DTITLE=Steve Hackett - The Tokyo Tapes [CD1]
DYEAR=1997
DGENRE=Progressive Rock
TTITLE0=Watcher Of The Skies
TTITLE1=Riding The Colossus
TTITLE2=Firth Of Fifth
TTITLE3=Battlelines
TTITLE4=Camino Royale
TTITLE5=The Court Of The Crimson King
TTITLE6=Horizons
TTITLE7=Walking Away From Rainbows
TTITLE8=Heat Of The Moment
EXTD=YEAR: 1997
EXTT0=
EXTT1=
EXTT2=
EXTT3=
EXTT4=
EXTT5=
EXTT6=
EXTT7=
EXTT8=
PLAYORDER=
